<svg id="Layer_1" data-name="Layer 1" xmlns="http://www.w3.org/2000/svg" viewBox="0 0 600 600"><defs><style>.cls-1{fill:#8a8c8c;}.cls-2{fill:#fff;}</style></defs><title>SCC-Logo-bg-gray</title><rect class="cls-1" width="600" height="600"/><path class="cls-2" d="M183.52,299.27a10,10,0,0,0,1-1.13c.26-.35.5-.71.7-1a3.8,3.8,0,0,0,.7-2.08,3.72,3.72,0,0,0-1.55-3c-2.07-1.45-4.4-2.93-7-4.48s-5.14-3-7.76-4.43-5.25-2.9-7.87-4.28l-3.16-1.69,12.18-7q3.7-2.13,6.79-4c2.08-1.24,3.8-2.3,5.14-3.17,1.94-1.22,3.23-2,3.23-3.71a5.06,5.06,0,0,0-1-2.7l-1.22-1.75a3.49,3.49,0,0,0-2.49-1.07c-.77,0-1.44.23-3.94,1.61-1.58.86-3.54,2-5.86,3.32s-4.82,2.82-7.52,4.43-5.21,3.1-7.63,4.51-4.54,2.67-6.35,3.76-3,1.82-3.44,2.13l-1.61,2.26v2.5l.78,1.39.83.89q.69.46,3.45,2.13L163.8,291c2.66,1.58,5.14,3,7.46,4.38l5.82,3.37c2.44,1.38,3.14,1.67,4,1.67A3.4,3.4,0,0,0,183.52,299.27Z"/><path class="cls-2" d="M433.68,280.3l1.14-2v-2.5l-1.15-2-.61-.35c-.51-.29-1.62-1-3.34-2s-3.87-2.34-6.31-3.77-5-2.91-7.63-4.52-5.2-3.07-7.5-4.41-4.32-2.47-5.95-3.35c-2.7-1.44-3.14-1.59-3.86-1.59a3.51,3.51,0,0,0-2.5,1.07l-1.2,1.73a5.06,5.06,0,0,0-1,2.72,4,4,0,0,0,1.61,3c4.72,3.15,9.72,6.14,14.84,8.89q5.49,3,10.85,6-2.31,1.26-5.2,2.9-3.36,1.9-7,4t-6.73,4c-2.07,1.24-3.78,2.3-5.15,3.17-2,1.28-3.21,2.05-3.21,3.71a3.85,3.85,0,0,0,.68,2.06l.66,1a7.69,7.69,0,0,0,1,1.22,3.41,3.41,0,0,0,2.51,1.21c.78,0,1.25-.2,3.91-1.67,1.61-.91,3.56-2,5.85-3.38l7.41-4.36c2.69-1.55,5.25-3.07,7.69-4.53s4.52-2.74,6.28-3.82,2.83-1.72,3.34-2Z"/><path class="cls-2" d="M254.51,296.82a14.49,14.49,0,0,0,1.95-7.62,15.73,15.73,0,0,0-2.54-9.15,20.75,20.75,0,0,0-5.88-5.63,44.2,44.2,0,0,0-7.14-3.62,67.11,67.11,0,0,1-6.45-3,16.76,16.76,0,0,1-4.44-3.31,5.86,5.86,0,0,1-1.37-4.15,4.5,4.5,0,0,1,.6-2.49,4.84,4.84,0,0,1,1.75-1.67,8.5,8.5,0,0,1,2.79-1,18.81,18.81,0,0,1,7.36.05c1.45.29,2.8.6,4.06.92s2.4.64,3.37.92c3.25,1,4.74.59,5.65-1.22l.45-1.11v-4.84l-1.81-2.09-.73-.22a43.82,43.82,0,0,0-7.42-1.54,40.83,40.83,0,0,0-13.71.21,17.42,17.42,0,0,0-5.95,2.42,14,14,0,0,0-4.45,4.66,13.39,13.39,0,0,0-1.77,7,15.91,15.91,0,0,0,2.53,9.26,21.18,21.18,0,0,0,5.85,5.66A37.35,37.35,0,0,0,234.4,279a70.16,70.16,0,0,1,6.46,2.85A16.24,16.24,0,0,1,245.3,285a5.47,5.47,0,0,1,1.34,4,5.66,5.66,0,0,1-.76,3.11,6.32,6.32,0,0,1-2.19,2.11,11.74,11.74,0,0,1-3.47,1.32,23.34,23.34,0,0,1-8.13.2,15.8,15.8,0,0,1-2.67-.66c-.86-.31-1.74-.68-2.64-1.09s-2.28-1-3.76-1.53l-.9-.16a3.35,3.35,0,0,0-3.41,3.51v4.64l1.17,1.4,1,.74a34.12,34.12,0,0,0,7.5,2,49.08,49.08,0,0,0,7.56.65,33.7,33.7,0,0,0,7-.73,20.44,20.44,0,0,0,6.61-2.63A15.44,15.44,0,0,0,254.51,296.82Z"/><path class="cls-2" d="M311.88,291.16l-1.08-.22c-.73,0-1.13.2-2.82,1.07-.94.49-2.17,1-3.67,1.63a44.41,44.41,0,0,1-5.15,1.62c-4.91,1.24-10.07.8-13.35-1a14.82,14.82,0,0,1-5.14-4.57,20,20,0,0,1-3-6.88,36.44,36.44,0,0,1-1-8.6,29.28,29.28,0,0,1,1.07-8.05,16.14,16.14,0,0,1,3.12-6,14.87,14.87,0,0,1,5.18-3.89,20,20,0,0,1,12.21-.93,40,40,0,0,1,4.53,1.21c1.43.47,2.66.9,3.69,1.26a8.83,8.83,0,0,0,2.88.71,3.23,3.23,0,0,0,3.29-3.4v-4.3l-1.51-2.12-.76-.28a43.9,43.9,0,0,0-8.38-2.14c-7.88-1.23-14.62-.82-19.93,1.34a22.32,22.32,0,0,0-8.53,6,25.72,25.72,0,0,0-5,9.21,38.09,38.09,0,0,0-1.62,11.39,49.79,49.79,0,0,0,1.36,12,27.12,27.12,0,0,0,4.58,9.92,21.64,21.64,0,0,0,8.49,6.74,29.61,29.61,0,0,0,12.31,2.36,40.76,40.76,0,0,0,4.63-.29c1.6-.21,3.22-.48,4.85-.83a38,38,0,0,0,4.89-1.37,27.34,27.34,0,0,0,4.45-2l.63-.35,1.15-2v-.7c0-.54,0-1.24.11-2.09A4.29,4.29,0,0,0,311.88,291.16Z"/><path class="cls-2" d="M366.81,300.75l.63-.35,1.15-2v-.7c0-.54,0-1.24.11-2.09a4.27,4.27,0,0,0-2.43-4.44l-1.07-.22c-.74,0-1.14.2-2.83,1.07-.94.49-2.17,1-3.67,1.63a43.8,43.8,0,0,1-5.15,1.62c-4.9,1.24-10.07.8-13.35-1a14.82,14.82,0,0,1-5.14-4.57,20,20,0,0,1-3-6.88,37,37,0,0,1-1-8.6,29.67,29.67,0,0,1,1.07-8.05,16.28,16.28,0,0,1,3.12-6,14.81,14.81,0,0,1,5.19-3.89,20,20,0,0,1,12.2-.93,40,40,0,0,1,4.53,1.21c1.43.47,2.66.9,3.69,1.26a8.83,8.83,0,0,0,2.88.71,3.23,3.23,0,0,0,3.29-3.4v-4.3l-1.51-2.12-.75-.28a44,44,0,0,0-8.39-2.14c-7.87-1.23-14.63-.82-19.93,1.34a22.36,22.36,0,0,0-8.52,6,25.42,25.42,0,0,0-5.05,9.21,38.09,38.09,0,0,0-1.63,11.39,49.79,49.79,0,0,0,1.36,12,27.12,27.12,0,0,0,4.58,9.92,21.71,21.71,0,0,0,8.49,6.74A29.61,29.61,0,0,0,348,305.22a40.76,40.76,0,0,0,4.63-.29c1.6-.21,3.23-.48,4.85-.83a38.6,38.6,0,0,0,4.9-1.37A27.61,27.61,0,0,0,366.81,300.75Z"/><path class="cls-2" d="M130.18,351.82a10.11,10.11,0,0,0-2.31-1.2c-.83-.3-1.6-.59-2.3-.86a9.34,9.34,0,0,1-1.76-.85,1.4,1.4,0,0,1-.71-1.22c0-1.26.81-1.88,2.43-1.88a10.76,10.76,0,0,1,3,.42,25.06,25.06,0,0,1,2.43.79l1.22-3.94a13.29,13.29,0,0,0-3-1.13,17.35,17.35,0,0,0-4.31-.5,7.8,7.8,0,0,0-5.32,1.63,7,7,0,0,0-1.14,7.82,6.8,6.8,0,0,0,1.76,2,8.51,8.51,0,0,0,2.31,1.22c.84.29,1.6.58,2.3.86a8.22,8.22,0,0,1,1.76.92,1.54,1.54,0,0,1,.71,1.34,1.68,1.68,0,0,1-.73,1.55,3.61,3.61,0,0,1-2,.46,10.4,10.4,0,0,1-3.27-.52,14.72,14.72,0,0,1-2.55-1.07l-1.51,4.06a13.18,13.18,0,0,0,3.16,1.32,14.8,14.8,0,0,0,4.17.57q4.07,0,6.1-1.83a6.38,6.38,0,0,0,2-5,5.79,5.79,0,0,0-.71-3A6.43,6.43,0,0,0,130.18,351.82Z"/><path class="cls-2" d="M147.75,358.67a6.4,6.4,0,0,1-1,.08,1.27,1.27,0,0,1-1.21-.67,4.59,4.59,0,0,1-.38-2.14V333.66h-5.44v25.13a4.72,4.72,0,0,0,1.25,3.67,5.36,5.36,0,0,0,3.65,1.11,12.35,12.35,0,0,0,2.85-.34,10.39,10.39,0,0,0,2.05-.67l-.59-4.27A6.59,6.59,0,0,1,147.75,358.67Z"/><path class="cls-2" d="M171.52,344.49a8.06,8.06,0,0,0-3.06-2.24,11,11,0,0,0-4.36-.8,9.33,9.33,0,0,0-7.28,2.87c-1.74,1.91-2.6,4.64-2.6,8.19a15.69,15.69,0,0,0,.61,4.52,9.36,9.36,0,0,0,1.84,3.5,8.32,8.32,0,0,0,3.08,2.24,10.93,10.93,0,0,0,4.35.8,9.28,9.28,0,0,0,7.27-2.87q2.58-2.88,2.58-8.19a16.11,16.11,0,0,0-.61-4.53A9.66,9.66,0,0,0,171.52,344.49Zm-4.23,12.92A3.59,3.59,0,0,1,164.1,359a3.75,3.75,0,0,1-1.94-.48,3.6,3.6,0,0,1-1.32-1.36,7.16,7.16,0,0,1-.76-2.06,12.67,12.67,0,0,1-.25-2.55q0-3.43,1.13-4.94a3.7,3.7,0,0,1,3.14-1.51,3.4,3.4,0,0,1,3.27,1.78,9.83,9.83,0,0,1,1,4.67A9,9,0,0,1,167.29,357.41Z"/><path class="cls-2" d="M197,356.32c0-1.2.07-2.42.15-3.67s.13-2.47.13-3.7a11.69,11.69,0,0,0-.36-3,5.24,5.24,0,0,0-3.54-3.79,10.91,10.91,0,0,0-3.64-.52,25.12,25.12,0,0,0-4.82.44,17.88,17.88,0,0,0-4,1.19l1.3,4.06a13.1,13.1,0,0,1,3-.88,19.5,19.5,0,0,1,3.46-.33c1.45,0,2.39.34,2.81,1a5.39,5.39,0,0,1,.33,3.37,26.65,26.65,0,0,0-5,.19,12.18,12.18,0,0,0-3.86,1.13A6.17,6.17,0,0,0,180.5,354a5.87,5.87,0,0,0-.86,3.25,6.57,6.57,0,0,0,.46,2.49,5.82,5.82,0,0,0,1.3,1.93,5.92,5.92,0,0,0,2,1.26,7.54,7.54,0,0,0,2.64.43,7,7,0,0,0,3.83-.94,7.47,7.47,0,0,0,2.33-2.24h.21l.88,2.89h4.44a12.7,12.7,0,0,1-.63-3.2C197,358.69,197,357.52,197,356.32Zm-5.13.21a5,5,0,0,1-1.42,1.57,4.18,4.18,0,0,1-2.6.73,2.63,2.63,0,0,1-1.9-.65,2.37,2.37,0,0,1-.69-1.82,1.87,1.87,0,0,1,.54-1.38,3.6,3.6,0,0,1,1.47-.84,9.48,9.48,0,0,1,2.11-.38,14.92,14.92,0,0,1,2.49.05Z"/><path class="cls-2" d="M221.78,343.25a4.73,4.73,0,0,0-2.05-1.38,8.48,8.48,0,0,0-2.77-.42,7.57,7.57,0,0,0-4.1,1,9.07,9.07,0,0,0-2.56,2.34h-.17l-.62-2.76h-4.32V363h5.45V349.41a4.9,4.9,0,0,1,1.53-2.24,3.91,3.91,0,0,1,2.61-.9,2.74,2.74,0,0,1,2.5,1.13,7.08,7.08,0,0,1,.73,3.68V363h5.44V350a17.4,17.4,0,0,0-.41-4.08A6.29,6.29,0,0,0,221.78,343.25Z"/><path class="cls-2" d="M257.17,358.39a6.69,6.69,0,0,1-2.34.36,4.79,4.79,0,0,1-2.2-.48A4.08,4.08,0,0,1,251.1,357a6,6,0,0,1-.88-2,9.62,9.62,0,0,1-.29-2.47,7.74,7.74,0,0,1,1.17-4.76,4.1,4.1,0,0,1,3.43-1.48,8.32,8.32,0,0,1,2.16.25,11.16,11.16,0,0,1,1.91.71l1.29-4.44a12.33,12.33,0,0,0-2.53-1,14.83,14.83,0,0,0-3.71-.38,8.54,8.54,0,0,0-7,2.87q-2.38,2.87-2.39,8.19a19.84,19.84,0,0,0,.48,4.52,9.3,9.3,0,0,0,1.58,3.5,7.2,7.2,0,0,0,2.82,2.24,10.2,10.2,0,0,0,4.25.8,13.65,13.65,0,0,0,3.67-.49,9,9,0,0,0,3-1.4l-1.26-4.15A7.68,7.68,0,0,1,257.17,358.39Z"/><path class="cls-2" d="M282.39,344.49a8.06,8.06,0,0,0-3.06-2.24,11,11,0,0,0-4.36-.8,9.33,9.33,0,0,0-7.28,2.87c-1.74,1.91-2.6,4.64-2.6,8.19a15.69,15.69,0,0,0,.61,4.52,9.22,9.22,0,0,0,1.84,3.5,8.32,8.32,0,0,0,3.08,2.24,10.93,10.93,0,0,0,4.35.8,9.28,9.28,0,0,0,7.27-2.87q2.58-2.88,2.58-8.19a16.11,16.11,0,0,0-.61-4.53A9.66,9.66,0,0,0,282.39,344.49Zm-4.23,12.92A3.59,3.59,0,0,1,275,359a3.75,3.75,0,0,1-1.94-.48,3.6,3.6,0,0,1-1.32-1.36,7.16,7.16,0,0,1-.76-2.06,12,12,0,0,1-.25-2.55q0-3.43,1.13-4.94a3.7,3.7,0,0,1,3.14-1.51,3.4,3.4,0,0,1,3.27,1.78,9.83,9.83,0,0,1,1,4.67A9,9,0,0,1,278.16,357.41Z"/><path class="cls-2" d="M309.74,355.61V333.66h-5.45v8.5a8.75,8.75,0,0,0-1.67-.48,12.52,12.52,0,0,0-2.14-.15c-3.13,0-5.5,1-7.12,3s-2.43,4.76-2.43,8.33.73,6.4,2.18,8.13a7.54,7.54,0,0,0,6.11,2.6,7.33,7.33,0,0,0,3.71-.9,6.31,6.31,0,0,0,2.41-2.37h.17l.75,2.72h3.9a29.1,29.1,0,0,1-.38-3.89C309.75,358,309.74,356.78,309.74,355.61Zm-5.45.33a4.11,4.11,0,0,1-1.3,2.24,3.75,3.75,0,0,1-2.51.78,3.2,3.2,0,0,1-3-1.63,8.59,8.59,0,0,1-.95-4.32c0-2.51.39-4.29,1.16-5.32a4,4,0,0,1,3.45-1.55,6.16,6.16,0,0,1,1.84.23,4.38,4.38,0,0,1,1.3.69Z"/><path class="cls-2" d="M332.69,343.25a7.2,7.2,0,0,0-2.68-1.38,11.53,11.53,0,0,0-3.1-.42,9.77,9.77,0,0,0-7.41,2.76c-1.76,1.85-2.64,4.61-2.64,8.3q0,5.14,2.34,8.1t7.42,3a14.88,14.88,0,0,0,4.58-.69,10.9,10.9,0,0,0,3.42-1.7l-1.8-3.56a8.78,8.78,0,0,1-2.08,1.07,8.47,8.47,0,0,1-3.08.52,5.24,5.24,0,0,1-4-1.34,6.19,6.19,0,0,1-1.36-4h12.57c.14-.73.24-1.42.31-2.09a18.31,18.31,0,0,0,.11-1.89,10.26,10.26,0,0,0-.71-4.06A6.87,6.87,0,0,0,332.69,343.25Zm-2.47,7.25h-7.79a6.38,6.38,0,0,1,1.23-3.42,3.83,3.83,0,0,1,3.17-1.27,3.07,3.07,0,0,1,2.7,1.21A5.31,5.31,0,0,1,330.22,350.5Z"/><path class="cls-2" d="M349.45,342.41a5.72,5.72,0,0,0-1.93,2.39h-.17l-.63-2.76h-4.23V363h5.45V349.45a3.71,3.71,0,0,1,1.32-2,3.8,3.8,0,0,1,2.45-.77,7,7,0,0,1,2.34.46l.71-5.11a7.8,7.8,0,0,0-2.47-.46A4.9,4.9,0,0,0,349.45,342.41Z"/><path class="cls-2" d="M372.19,351.82a10.11,10.11,0,0,0-2.31-1.2c-.83-.3-1.6-.59-2.3-.86a9.65,9.65,0,0,1-1.76-.85,1.42,1.42,0,0,1-.71-1.22c0-1.26.81-1.88,2.43-1.88a10.71,10.71,0,0,1,3,.42,25.06,25.06,0,0,1,2.43.79l1.22-3.94a13.11,13.11,0,0,0-3-1.13,17.29,17.29,0,0,0-4.31-.5,7.82,7.82,0,0,0-5.32,1.63,6,6,0,0,0-1.85,4.74,5.93,5.93,0,0,0,.72,3.08,6.52,6.52,0,0,0,1.76,2,8.31,8.31,0,0,0,2.3,1.22c.84.29,1.61.58,2.3.86a8.22,8.22,0,0,1,1.76.92,1.54,1.54,0,0,1,.71,1.34,1.68,1.68,0,0,1-.73,1.55,3.61,3.61,0,0,1-2,.46,10.34,10.34,0,0,1-3.26-.52,14.86,14.86,0,0,1-2.56-1.07l-1.51,4.06a13.09,13.09,0,0,0,3.17,1.32,14.68,14.68,0,0,0,4.16.57q4.07,0,6.1-1.83a6.38,6.38,0,0,0,2-5,5.79,5.79,0,0,0-.71-3A6.3,6.3,0,0,0,372.19,351.82Z"/><path class="cls-2" d="M407.37,358.39a6.69,6.69,0,0,1-2.34.36,4.79,4.79,0,0,1-2.2-.48A4.08,4.08,0,0,1,401.3,357a6,6,0,0,1-.88-2,9.62,9.62,0,0,1-.29-2.47,7.74,7.74,0,0,1,1.17-4.76,4.11,4.11,0,0,1,3.43-1.48,8.32,8.32,0,0,1,2.16.25,11.16,11.16,0,0,1,1.91.71l1.3-4.44a12.65,12.65,0,0,0-2.54-1,14.77,14.77,0,0,0-3.71-.38,8.54,8.54,0,0,0-7,2.87q-2.38,2.87-2.39,8.19A19.27,19.27,0,0,0,395,357a9.14,9.14,0,0,0,1.57,3.5,7.2,7.2,0,0,0,2.82,2.24,10.22,10.22,0,0,0,4.26.8,13.63,13.63,0,0,0,3.66-.49,9,9,0,0,0,3-1.4l-1.26-4.15A7.68,7.68,0,0,1,407.37,358.39Z"/><path class="cls-2" d="M425.19,358.67a6.37,6.37,0,0,1-1,.08,1.3,1.3,0,0,1-1.22-.67,4.61,4.61,0,0,1-.37-2.14V333.66h-5.45v25.13a4.68,4.68,0,0,0,1.26,3.67,5.34,5.34,0,0,0,3.64,1.11,12.22,12.22,0,0,0,2.85-.34,10.17,10.17,0,0,0,2.05-.67l-.58-4.27A6.91,6.91,0,0,1,425.19,358.67Z"/><path class="cls-2" d="M450.43,356.61V342H445v13.53a5.69,5.69,0,0,1-1.52,2.26,3.76,3.76,0,0,1-2.58.92,2.46,2.46,0,0,1-2.37-1.13,8.36,8.36,0,0,1-.6-3.69V342h-5.45v13a16.28,16.28,0,0,0,.44,4.11,6.35,6.35,0,0,0,1.28,2.59,4.67,4.67,0,0,0,2.09,1.39,9,9,0,0,0,2.85.42,7.62,7.62,0,0,0,4.06-1.05,7.79,7.79,0,0,0,2.68-2.64H446l1,3.1h4.11a21.29,21.29,0,0,1-.5-3A31,31,0,0,1,450.43,356.61Z"/><path class="cls-2" d="M475.25,344.11a6.84,6.84,0,0,0-5.76-2.58,7.77,7.77,0,0,0-3.06.59,6.15,6.15,0,0,0-2.26,1.59H464v-10h-5.44v28.4a14.66,14.66,0,0,0,3.35,1,24.72,24.72,0,0,0,4.9.44,10,10,0,0,0,7.64-2.93c1.86-1.95,2.79-4.82,2.79-8.59C477.24,348.45,476.57,345.83,475.25,344.11Zm-4.78,13.15a3.87,3.87,0,0,1-3.37,1.62,10.62,10.62,0,0,1-1.65-.13,5,5,0,0,1-1.45-.46v-9.13a4.83,4.83,0,0,1,1.45-2.24,3.69,3.69,0,0,1,2.45-.78q3.72,0,3.72,6Q471.62,355.66,470.47,357.26Z"/></svg>