<svg id="Layer_1" data-name="Layer 1" xmlns="http://www.w3.org/2000/svg" viewBox="0 0 600 600"><defs><style>.cls-1{fill:#fff;}</style></defs><title>SCC-Logo-white</title><path class="cls-1" d="M186.31,289.27a9,9,0,0,0,1-1.13c.26-.35.51-.71.71-1a3.8,3.8,0,0,0,.7-2.08,3.73,3.73,0,0,0-1.56-3c-2.06-1.45-4.39-2.93-7-4.48s-5.14-3-7.75-4.43-5.25-2.9-7.88-4.28l-3.16-1.69,12.19-7q3.71-2.13,6.79-4t5.13-3.17c1.95-1.22,3.24-2,3.24-3.71a5.06,5.06,0,0,0-1-2.7l-1.22-1.75a3.51,3.51,0,0,0-2.5-1.07c-.76,0-1.43.23-3.94,1.61q-2.37,1.29-5.86,3.32c-2.31,1.35-4.82,2.82-7.51,4.43s-5.22,3.1-7.63,4.51-4.54,2.67-6.35,3.76-3,1.82-3.44,2.13l-1.62,2.26v2.5l.79,1.39.83.89q.69.46,3.45,2.13L166.59,281c2.65,1.58,5.14,3,7.45,4.38l5.83,3.37c2.43,1.38,3.14,1.67,4,1.67A3.4,3.4,0,0,0,186.31,289.27Z"/><path class="cls-1" d="M436.47,270.3l1.13-2v-2.5l-1.14-2-.61-.35c-.52-.29-1.63-1-3.35-2s-3.86-2.34-6.3-3.77-4.95-2.91-7.63-4.52-5.2-3.07-7.51-4.41-4.32-2.47-5.94-3.35c-2.7-1.44-3.14-1.59-3.87-1.59a3.5,3.5,0,0,0-2.49,1.07l-1.2,1.73a5,5,0,0,0-1.05,2.72,4.06,4.06,0,0,0,1.61,3c4.73,3.15,9.72,6.14,14.85,8.89q5.47,3,10.85,6c-1.54.84-3.27,1.81-5.21,2.9q-3.35,1.9-7,4t-6.72,4c-2.07,1.24-3.78,2.3-5.15,3.17-2,1.28-3.22,2.05-3.22,3.71a3.94,3.94,0,0,0,.68,2.06l.67,1a7.67,7.67,0,0,0,1,1.22,3.43,3.43,0,0,0,2.52,1.21c.77,0,1.25-.2,3.91-1.67,1.61-.91,3.56-2,5.85-3.38l7.41-4.36c2.69-1.55,5.25-3.07,7.69-4.53s4.52-2.74,6.27-3.82,2.83-1.72,3.35-2Z"/><path class="cls-1" d="M257.29,286.82a14.39,14.39,0,0,0,1.95-7.62,15.72,15.72,0,0,0-2.53-9.15,20.79,20.79,0,0,0-5.89-5.63,44.5,44.5,0,0,0-7.13-3.62,67.11,67.11,0,0,1-6.45-3,16.76,16.76,0,0,1-4.44-3.31,5.86,5.86,0,0,1-1.37-4.15,4.59,4.59,0,0,1,.59-2.49,5,5,0,0,1,1.75-1.67,8.64,8.64,0,0,1,2.8-1,18.81,18.81,0,0,1,7.36.05c1.44.29,2.79.6,4.06.92s2.4.64,3.36.92c3.25,1,4.75.59,5.66-1.22l.44-1.11v-4.84l-1.8-2.09-.73-.22a44,44,0,0,0-7.42-1.54,40.83,40.83,0,0,0-13.71.21,17.55,17.55,0,0,0-6,2.42,14,14,0,0,0-4.45,4.66,13.49,13.49,0,0,0-1.77,7,15.84,15.84,0,0,0,2.54,9.26A21.18,21.18,0,0,0,230,265.3a37.06,37.06,0,0,0,7.19,3.66,70.16,70.16,0,0,1,6.46,2.85,16.18,16.18,0,0,1,4.43,3.22,5.47,5.47,0,0,1,1.34,4,5.58,5.58,0,0,1-.76,3.11,6.23,6.23,0,0,1-2.19,2.11,11.67,11.67,0,0,1-3.46,1.32,23.34,23.34,0,0,1-8.13.2,15.33,15.33,0,0,1-2.67-.66c-.87-.31-1.75-.68-2.64-1.09s-2.28-1-3.76-1.53l-.91-.16a3.35,3.35,0,0,0-3.4,3.51v4.64l1.17,1.4,1,.74a34.21,34.21,0,0,0,7.51,2,48.86,48.86,0,0,0,7.55.65,33.72,33.72,0,0,0,7-.73,20.38,20.38,0,0,0,6.6-2.63A15.34,15.34,0,0,0,257.29,286.82Z"/><path class="cls-1" d="M314.66,281.16l-1.07-.22c-.74,0-1.14.2-2.83,1.07-.94.49-2.16,1-3.66,1.63a44.41,44.41,0,0,1-5.15,1.62c-4.91,1.24-10.08.8-13.36-1a14.82,14.82,0,0,1-5.14-4.57,20,20,0,0,1-3-6.88,36.44,36.44,0,0,1-1-8.6,29.28,29.28,0,0,1,1.07-8.05,16.12,16.12,0,0,1,3.11-6,14.91,14.91,0,0,1,5.19-3.89,20,20,0,0,1,12.2-.93,40,40,0,0,1,4.53,1.21c1.44.47,2.67.9,3.69,1.26a8.87,8.87,0,0,0,2.89.71,3.23,3.23,0,0,0,3.28-3.4v-4.3l-1.51-2.12-.75-.28a43.9,43.9,0,0,0-8.38-2.14c-7.88-1.23-14.62-.82-19.93,1.34a22.32,22.32,0,0,0-8.53,6,25.42,25.42,0,0,0-5.05,9.21,38.09,38.09,0,0,0-1.63,11.39,50.3,50.3,0,0,0,1.36,12,27.28,27.28,0,0,0,4.58,9.92,21.71,21.71,0,0,0,8.49,6.74,29.69,29.69,0,0,0,12.32,2.36,40.74,40.74,0,0,0,4.62-.29c1.6-.21,3.23-.48,4.85-.83a38.14,38.14,0,0,0,4.9-1.37,26.84,26.84,0,0,0,4.44-2l.63-.35,1.16-2v-.7c0-.54,0-1.24.1-2.09A4.26,4.26,0,0,0,314.66,281.16Z"/><path class="cls-1" d="M369.59,290.75l.63-.35,1.16-2v-.7c0-.54,0-1.24.1-2.09a4.26,4.26,0,0,0-2.43-4.44l-1.07-.22c-.74,0-1.13.2-2.82,1.07-1,.49-2.17,1-3.67,1.63a44.41,44.41,0,0,1-5.15,1.62c-4.91,1.24-10.08.8-13.35-1a14.73,14.73,0,0,1-5.14-4.57,20,20,0,0,1-3-6.88,36.44,36.44,0,0,1-1-8.6,29.28,29.28,0,0,1,1.07-8.05,16.14,16.14,0,0,1,3.12-6,14.87,14.87,0,0,1,5.18-3.89,20,20,0,0,1,12.2-.93,40.22,40.22,0,0,1,4.54,1.21c1.43.47,2.66.9,3.69,1.26a8.78,8.78,0,0,0,2.88.71,3.24,3.24,0,0,0,3.29-3.4v-4.3l-1.52-2.12-.75-.28a43.9,43.9,0,0,0-8.38-2.14c-7.88-1.23-14.63-.82-19.93,1.34a22.32,22.32,0,0,0-8.53,6,25.57,25.57,0,0,0-5,9.21A38.09,38.09,0,0,0,324,264.23a50.3,50.3,0,0,0,1.36,12,27.28,27.28,0,0,0,4.58,9.92,21.74,21.74,0,0,0,8.5,6.74,29.61,29.61,0,0,0,12.31,2.36,40.76,40.76,0,0,0,4.63-.29c1.6-.21,3.22-.48,4.84-.83a38.14,38.14,0,0,0,4.9-1.37A26.84,26.84,0,0,0,369.59,290.75Z"/><path class="cls-1" d="M133,341.82a10,10,0,0,0-2.3-1.2c-.84-.3-1.61-.59-2.31-.86a9.53,9.53,0,0,1-1.75-.85,1.41,1.41,0,0,1-.72-1.22c0-1.26.81-1.88,2.43-1.88a10.78,10.78,0,0,1,3,.42c1,.27,1.78.54,2.43.79l1.21-3.94a13.11,13.11,0,0,0-3-1.13,17.29,17.29,0,0,0-4.31-.5,7.82,7.82,0,0,0-5.32,1.63,7,7,0,0,0-1.13,7.82,6.52,6.52,0,0,0,1.76,2,8.6,8.6,0,0,0,2.3,1.22c.84.29,1.61.58,2.31.86a8.74,8.74,0,0,1,1.76.92,1.56,1.56,0,0,1,.71,1.34,1.7,1.7,0,0,1-.73,1.55,3.61,3.61,0,0,1-1.95.46,10.36,10.36,0,0,1-3.27-.52,14.72,14.72,0,0,1-2.55-1.07L120,351.68a13,13,0,0,0,3.16,1.32,14.8,14.8,0,0,0,4.17.57q4.06,0,6.09-1.83a6.35,6.35,0,0,0,2-5,5.7,5.7,0,0,0-.71-3A6.18,6.18,0,0,0,133,341.82Z"/><path class="cls-1" d="M150.53,348.67a6.37,6.37,0,0,1-1,.08,1.3,1.3,0,0,1-1.22-.67,4.61,4.61,0,0,1-.37-2.14V323.66h-5.45v25.13a4.68,4.68,0,0,0,1.26,3.67,5.34,5.34,0,0,0,3.64,1.11,12.22,12.22,0,0,0,2.85-.34,10.17,10.17,0,0,0,2.05-.67l-.58-4.27A6.91,6.91,0,0,1,150.53,348.67Z"/><path class="cls-1" d="M174.3,334.49a8.1,8.1,0,0,0-3.05-2.24,11,11,0,0,0-4.36-.8,9.34,9.34,0,0,0-7.29,2.87q-2.59,2.87-2.6,8.19a16,16,0,0,0,.61,4.52,9.51,9.51,0,0,0,1.84,3.5,8.4,8.4,0,0,0,3.08,2.24,11,11,0,0,0,4.36.8,9.28,9.28,0,0,0,7.27-2.87q2.57-2.88,2.57-8.19a15.76,15.76,0,0,0-.61-4.53A9.51,9.51,0,0,0,174.3,334.49Zm-4.23,12.92a3.59,3.59,0,0,1-3.18,1.55,3.81,3.81,0,0,1-1.95-.48,3.75,3.75,0,0,1-1.32-1.36,7.47,7.47,0,0,1-.75-2.06,12,12,0,0,1-.25-2.55c0-2.29.37-3.94,1.13-4.94a3.69,3.69,0,0,1,3.14-1.51,3.42,3.42,0,0,1,3.27,1.78,9.83,9.83,0,0,1,1,4.67A8.92,8.92,0,0,1,170.07,347.41Z"/><path class="cls-1" d="M199.79,346.32c0-1.2.06-2.42.15-3.67s.12-2.47.12-3.7a12.16,12.16,0,0,0-.35-3,5.29,5.29,0,0,0-3.54-3.79,11,11,0,0,0-3.65-.52,25,25,0,0,0-4.81.44,17.72,17.72,0,0,0-4,1.19l1.29,4.06a13.2,13.2,0,0,1,3-.88,19.42,19.42,0,0,1,3.46-.33c1.45,0,2.38.34,2.8,1a5.45,5.45,0,0,1,.34,3.37,26.72,26.72,0,0,0-5,.19,12.12,12.12,0,0,0-3.85,1.13,6.11,6.11,0,0,0-2.47,2.13,5.79,5.79,0,0,0-.86,3.25,6.39,6.39,0,0,0,.46,2.49,5.82,5.82,0,0,0,1.3,1.93,5.92,5.92,0,0,0,2,1.26,7.54,7.54,0,0,0,2.64.43,7,7,0,0,0,3.83-.94,7.44,7.44,0,0,0,2.32-2.24h.21l.88,2.89h4.44a13.65,13.65,0,0,1-.63-3.2C199.81,348.69,199.78,347.52,199.79,346.32Zm-5.13.21a5.07,5.07,0,0,1-1.43,1.57,4.15,4.15,0,0,1-2.59.73,2.65,2.65,0,0,1-1.91-.65,2.37,2.37,0,0,1-.69-1.82,1.84,1.84,0,0,1,.55-1.38,3.63,3.63,0,0,1,1.46-.84,9.57,9.57,0,0,1,2.12-.38,15,15,0,0,1,2.49.05Z"/><path class="cls-1" d="M224.56,333.25a4.67,4.67,0,0,0-2.05-1.38,8.42,8.42,0,0,0-2.76-.42,7.58,7.58,0,0,0-4.11,1,9,9,0,0,0-2.55,2.34h-.17l-.63-2.76H208V353h5.44V339.41a5.06,5.06,0,0,1,1.53-2.24,3.93,3.93,0,0,1,2.62-.9,2.73,2.73,0,0,1,2.49,1.13,7,7,0,0,1,.73,3.68V353h5.45V340a16.83,16.83,0,0,0-.42-4.08A6.29,6.29,0,0,0,224.56,333.25Z"/><path class="cls-1" d="M260,348.39a6.79,6.79,0,0,1-2.35.36,4.79,4.79,0,0,1-2.2-.48,4.08,4.08,0,0,1-1.53-1.32,6.22,6.22,0,0,1-.88-2,10.08,10.08,0,0,1-.29-2.47,7.74,7.74,0,0,1,1.17-4.76,4.13,4.13,0,0,1,3.44-1.48,8.32,8.32,0,0,1,2.16.25,11.06,11.06,0,0,1,1.9.71l1.3-4.44a12.56,12.56,0,0,0-2.53-1,14.88,14.88,0,0,0-3.71-.38,8.52,8.52,0,0,0-6.95,2.87c-1.6,1.91-2.39,4.64-2.39,8.19a19.84,19.84,0,0,0,.48,4.52,9.14,9.14,0,0,0,1.57,3.5,7.3,7.3,0,0,0,2.83,2.24,10.17,10.17,0,0,0,4.25.8,13.52,13.52,0,0,0,3.66-.49,9,9,0,0,0,3-1.4l-1.26-4.15A7.6,7.6,0,0,1,260,348.39Z"/><path class="cls-1" d="M285.17,334.49a8.06,8.06,0,0,0-3.06-2.24,10.9,10.9,0,0,0-4.35-.8,9.34,9.34,0,0,0-7.29,2.87q-2.6,2.87-2.6,8.19a16,16,0,0,0,.61,4.52,9.51,9.51,0,0,0,1.84,3.5,8.4,8.4,0,0,0,3.08,2.24,11,11,0,0,0,4.36.8A9.28,9.28,0,0,0,285,350.7q2.57-2.88,2.57-8.19A15.76,15.76,0,0,0,287,338,9.51,9.51,0,0,0,285.17,334.49Zm-4.23,12.92a3.59,3.59,0,0,1-3.18,1.55,3.54,3.54,0,0,1-3.27-1.84,7.47,7.47,0,0,1-.75-2.06,12,12,0,0,1-.25-2.55c0-2.29.37-3.94,1.13-4.94a3.69,3.69,0,0,1,3.14-1.51,3.42,3.42,0,0,1,3.27,1.78,9.83,9.83,0,0,1,1,4.67A8.92,8.92,0,0,1,280.94,347.41Z"/><path class="cls-1" d="M312.52,345.61V323.66h-5.44v8.5a8.84,8.84,0,0,0-1.68-.48,12.47,12.47,0,0,0-2.13-.15c-3.13,0-5.51,1-7.12,3s-2.43,4.76-2.43,8.33.72,6.4,2.17,8.13a7.56,7.56,0,0,0,6.12,2.6,7.36,7.36,0,0,0,3.71-.9,6.38,6.38,0,0,0,2.41-2.37h.16l.76,2.72h3.89a29,29,0,0,1-.37-3.89C312.54,348,312.52,346.78,312.52,345.61Zm-5.44.33a4.17,4.17,0,0,1-1.3,2.24,3.77,3.77,0,0,1-2.51.78,3.23,3.23,0,0,1-3-1.63,8.59,8.59,0,0,1-.94-4.32c0-2.51.38-4.29,1.15-5.32a4,4,0,0,1,3.46-1.55,6.26,6.26,0,0,1,1.84.23,4.51,4.51,0,0,1,1.3.69Z"/><path class="cls-1" d="M335.48,333.25a7.36,7.36,0,0,0-2.68-1.38,11.53,11.53,0,0,0-3.1-.42,9.78,9.78,0,0,0-7.42,2.76c-1.76,1.85-2.64,4.61-2.64,8.3q0,5.14,2.35,8.1t7.41,3a15,15,0,0,0,4.59-.69,10.73,10.73,0,0,0,3.41-1.7l-1.8-3.56a8.84,8.84,0,0,1-5.15,1.59,5.23,5.23,0,0,1-4-1.34,6.13,6.13,0,0,1-1.36-4h12.56c.14-.73.25-1.42.32-2.09a18.17,18.17,0,0,0,.1-1.89,10.08,10.08,0,0,0-.71-4.06A6.75,6.75,0,0,0,335.48,333.25ZM333,340.5h-7.79a6.38,6.38,0,0,1,1.24-3.42,3.81,3.81,0,0,1,3.16-1.27,3.07,3.07,0,0,1,2.7,1.21A5.19,5.19,0,0,1,333,340.5Z"/><path class="cls-1" d="M352.23,332.41a5.79,5.79,0,0,0-1.93,2.39h-.16l-.63-2.76h-4.23V353h5.44V339.45a3.71,3.71,0,0,1,3.77-2.76,7.05,7.05,0,0,1,2.35.46l.71-5.11a7.85,7.85,0,0,0-2.47-.46A5,5,0,0,0,352.23,332.41Z"/><path class="cls-1" d="M375,341.82a9.84,9.84,0,0,0-2.3-1.2c-.84-.3-1.61-.59-2.3-.86a9.34,9.34,0,0,1-1.76-.85,1.4,1.4,0,0,1-.71-1.22c0-1.26.8-1.88,2.42-1.88a10.78,10.78,0,0,1,3,.42c1,.27,1.78.54,2.43.79l1.21-3.94a13,13,0,0,0-3-1.13,17.43,17.43,0,0,0-4.32-.5,7.82,7.82,0,0,0-5.32,1.63,7,7,0,0,0-1.13,7.82,6.66,6.66,0,0,0,1.76,2,8.51,8.51,0,0,0,2.31,1.22c.83.29,1.6.58,2.3.86a8.47,8.47,0,0,1,1.76.92,1.56,1.56,0,0,1,.71,1.34,1.68,1.68,0,0,1-.73,1.55,3.61,3.61,0,0,1-1.95.46,10.36,10.36,0,0,1-3.27-.52,14.72,14.72,0,0,1-2.55-1.07L362,351.68a13,13,0,0,0,3.16,1.32,14.8,14.8,0,0,0,4.17.57q4.06,0,6.09-1.83a6.35,6.35,0,0,0,2-5,5.7,5.7,0,0,0-.72-3A6.18,6.18,0,0,0,375,341.82Z"/><path class="cls-1" d="M410.16,348.39a6.75,6.75,0,0,1-2.35.36,4.79,4.79,0,0,1-2.2-.48,4.24,4.24,0,0,1-1.53-1.32,6.22,6.22,0,0,1-.88-2,10.08,10.08,0,0,1-.29-2.47,7.74,7.74,0,0,1,1.17-4.76,4.13,4.13,0,0,1,3.44-1.48,8.32,8.32,0,0,1,2.16.25,11.06,11.06,0,0,1,1.9.71l1.3-4.44a12.56,12.56,0,0,0-2.53-1,14.88,14.88,0,0,0-3.71-.38,8.54,8.54,0,0,0-6.95,2.87c-1.6,1.91-2.39,4.64-2.39,8.19a19.84,19.84,0,0,0,.48,4.52,9.14,9.14,0,0,0,1.57,3.5,7.3,7.3,0,0,0,2.83,2.24,10.17,10.17,0,0,0,4.25.8,13.65,13.65,0,0,0,3.67-.49,9,9,0,0,0,3-1.4l-1.26-4.15A7.6,7.6,0,0,1,410.16,348.39Z"/><path class="cls-1" d="M428,348.67a6.4,6.4,0,0,1-1,.08,1.28,1.28,0,0,1-1.21-.67,4.59,4.59,0,0,1-.38-2.14V323.66H420v25.13a4.72,4.72,0,0,0,1.25,3.67,5.36,5.36,0,0,0,3.65,1.11,12.22,12.22,0,0,0,2.85-.34,10.39,10.39,0,0,0,2.05-.67l-.59-4.27A6.59,6.59,0,0,1,428,348.67Z"/><path class="cls-1" d="M453.21,346.61V332h-5.44v13.53a5.71,5.71,0,0,1-1.53,2.26,3.72,3.72,0,0,1-2.58.92,2.43,2.43,0,0,1-2.36-1.13,8.19,8.19,0,0,1-.61-3.69V332h-5.44v13a15.84,15.84,0,0,0,.44,4.11,6.47,6.47,0,0,0,1.27,2.59,4.65,4.65,0,0,0,2.1,1.39,9,9,0,0,0,2.85.42,7.65,7.65,0,0,0,4.06-1.05,7.88,7.88,0,0,0,2.68-2.64h.17l1,3.1h4.11a19.87,19.87,0,0,1-.51-3C453.27,348.88,453.21,347.76,453.21,346.61Z"/><path class="cls-1" d="M478,334.11a6.82,6.82,0,0,0-5.76-2.58,7.75,7.75,0,0,0-3,.59,6.11,6.11,0,0,0-2.27,1.59h-.16v-10h-5.45v28.4a14.82,14.82,0,0,0,3.35,1,24.79,24.79,0,0,0,4.9.44,10.07,10.07,0,0,0,7.65-2.93c1.85-1.95,2.78-4.82,2.78-8.59Q480,336.7,478,334.11Zm-4.77,13.15a3.87,3.87,0,0,1-3.37,1.62,10.85,10.85,0,0,1-1.66-.13,4.86,4.86,0,0,1-1.44-.46v-9.13a4.74,4.74,0,0,1,1.44-2.24,3.73,3.73,0,0,1,2.45-.78q3.74,0,3.73,6Q474.41,345.66,473.26,347.26Z"/></svg>